<svg xmlns="http://www.w3.org/2000/svg" xmlns:xlink="http://www.w3.org/1999/xlink" version="1.1" id="Capa_1" x="0px"
	y="0px" width="20px" height="20px" viewBox="0 0 287.755 287.755" style="enable-background:new 0 0 287.755 287.755;"
	xml:space="preserve">
	<g>
		<path
			d="M134.16,279.13c-15.24,0-26.715-12.31-26.715-27.544c0-15.162,11.475-26.638,26.715-26.638   c15.162,0,27.472,11.476,27.472,26.638C161.626,266.821,149.316,279.13,134.16,279.13z" />
		<path
			d="M265.515,176.575c-1.682,7.085-2.275,19.503-6.762,25.244c-2.708,3.465-6.773,5.626-11.943,5.626H92.21   c-9.962,0-18.056-8.022-18.056-18.003c0-6.461-18.507-98.199-25.497-132.633c-1.453-7.146-8.551-12.995-15.834-13.061   l-14.711-0.141c-19.786,0-18.075-18.774-18.075-18.774c0.384-6.626,2.642-10.581,5.434-12.911   c5.597-4.668,18.231-3.008,25.347-3.02l12.874-0.024c22.146,0,30.883,12.661,34.317,22.929c2.312,6.917,3.495,18.735,5.05,25.857   l22.104,100.829c1.561,7.122,8.737,12.893,16.021,12.893H222.31c7.29,0,14.412-5.771,15.907-12.91l16.507-78.486   c2.132-9.217,5.566-13.627,9.086-15.501c6.425-3.444,19.882,1.63,22.416,8.455c3.759,10.157-0.595,27.37-0.595,27.37   S272.691,146.484,265.515,176.575z" />
		<path
			d="M224.382,279.13c-15.18,0-26.649-12.31-26.649-27.544c0-15.162,11.47-26.638,26.649-26.638   c15.162,0,27.525,11.476,27.525,26.638C251.908,266.821,239.544,279.13,224.382,279.13z" />
	</g>
</svg>