<svg xmlns="http://www.w3.org/2000/svg" width="320" height="448" viewBox="0 0 320 448">
	<g transform="translate(-0.351 127.825)">
		<rect width="320" height="320" transform="translate(0.351 0.175)" fill="none" />
		<path
			d="M288.351,224.322V96.029a10.5,10.5,0,0,0-5.474-9.108L165.382,22.515a10.651,10.651,0,0,0-10.414,0L37.474,86.921A10.5,10.5,0,0,0,32,96.029V224.322a10.5,10.5,0,0,0,5.474,9.108l117.494,64.406a10.651,10.651,0,0,0,10.414,0L282.877,233.43a10.5,10.5,0,0,0,5.474-9.108Z"
			transform="translate(0 0)" fill="none" stroke="#ff5758" stroke-linecap="round" stroke-linejoin="round"
			stroke-width="16" />
		<path d="M287.251,74.6,161.381,128,33.1,74.6" transform="translate(0 23.695)" fill="none" stroke="#ff5758"
			stroke-linecap="round" stroke-linejoin="round" stroke-width="16" />
		<line x1="0.591" y2="147.475" transform="translate(160.26 151.675)" stroke-width="16" stroke="#ff5758"
			stroke-linecap="round" stroke-linejoin="round" fill="none" />
	</g>
	<g transform="translate(32)">
		<rect width="256" height="256" fill="none" />
		<path d="M208,104c0,72-80,128-80,128S48,176,48,104a80,80,0,0,1,160,0Z" fill="#ff5758" stroke="#d3d3d3"
			stroke-linecap="round" stroke-linejoin="round" stroke-width="16" />
		<circle cx="32" cy="32" r="32" transform="translate(96 72)" fill="#00989e" stroke="#00989e"
			stroke-linecap="round" stroke-linejoin="round" stroke-width="16" />
	</g>
</svg>